<svg xmlns:dc="http://purl.org/dc/elements/1.1/" xmlns:cc="http://creativecommons.org/ns#" xmlns:rdf="http://www.w3.org/1999/02/22-rdf-syntax-ns#" xmlns:svg="http://www.w3.org/2000/svg" xmlns="http://www.w3.org/2000/svg" xmlns:sodipodi="http://sodipodi.sourceforge.net/DTD/sodipodi-0.dtd" xmlns:inkscape="http://www.inkscape.org/namespaces/inkscape" version="1.1" x="0px" y="0px" viewBox="0 0 100 125" enable-background="new 0 0 100 100" xml:space="preserve"><path style="color:#000000;enable-background:accumulate;" d="M 49.3125,7.5 5,30.1875 5,37.5 50,14.8125 95,37.5 95,30.1875 49.3125,7.5 z m 0.6875,11 -11.65625,5.8125 11.65625,7 11.65625,-7 L 50,18.5 z M 30.9375,28 13,37 13,73.96875 50,92.5 87,73.96875 87,37 69.03125,28 56.75,35.375 l 15.46875,9 0,14.84375 -7.40625,3.6875 0,-14.71875 L 50,39.5 l -14.78125,8.6875 0,14.78125 -7.4375,-3.6875 0,-14.78125 L 43.25,35.375 30.9375,28 z" fill="#000000" fill-opacity="1" fill-rule="nonzero" stroke="none" marker="none" visibility="visible" display="inline" overflow="visible"/></svg>
